<!-- Generated by IcoMoon.io -->
<svg version="1.1" xmlns="http://www.w3.org/2000/svg" width="18" height="32" viewBox="0 0 18 32">
<path d="M1.688 0c-0.146 0-0.281 0.026-0.406 0.078s-0.24 0.13-0.344 0.234c-0.208 0.208-0.313 0.464-0.313 0.766s0.104 0.557 0.313 0.766l14.25 14.25-14.063 14.063c-0.208 0.208-0.313 0.458-0.313 0.75s0.104 0.542 0.313 0.75c0.208 0.208 0.464 0.313 0.766 0.313s0.557-0.104 0.766-0.313l14.813-14.813c0.208-0.208 0.313-0.458 0.313-0.75s-0.104-0.542-0.313-0.75l-15.031-15.031c-0.104-0.104-0.224-0.182-0.359-0.234s-0.266-0.078-0.391-0.078z"></path>
</svg>
