<!-- Generated by IcoMoon.io -->
<svg version="1.1" xmlns="http://www.w3.org/2000/svg" width="18" height="32" viewBox="0 0 18 32">
<path d="M16.094 0c0.146 0 0.281 0.026 0.406 0.078s0.24 0.13 0.344 0.234c0.208 0.208 0.313 0.464 0.313 0.766s-0.104 0.557-0.313 0.766l-14.25 14.25 14.063 14.063c0.208 0.208 0.313 0.458 0.313 0.75s-0.104 0.542-0.313 0.75c-0.208 0.208-0.464 0.313-0.766 0.313s-0.557-0.104-0.766-0.313l-14.813-14.813c-0.208-0.208-0.313-0.458-0.313-0.75s0.104-0.542 0.313-0.75l15.031-15.031c0.104-0.104 0.224-0.182 0.359-0.234s0.266-0.078 0.391-0.078z"></path>
</svg>
