<!-- Generated by IcoMoon.io -->
<svg version="1.1" xmlns="http://www.w3.org/2000/svg" width="32" height="32" viewBox="0 0 32 32">
<path d="M30 3h-8v-2c0-0.271-0.099-0.505-0.297-0.703s-0.432-0.297-0.703-0.297c-0.271 0-0.505 0.099-0.703 0.297s-0.297 0.432-0.297 0.703v2h-8v-2c0-0.271-0.099-0.505-0.297-0.703s-0.432-0.297-0.703-0.297c-0.271 0-0.505 0.099-0.703 0.297s-0.297 0.432-0.297 0.703v2h-8c-0.563 0-1.036 0.193-1.422 0.578s-0.578 0.859-0.578 1.422v25c0 0.542 0.193 1.010 0.578 1.406s0.859 0.594 1.422 0.594h28c0.563 0 1.036-0.198 1.422-0.594s0.578-0.865 0.578-1.406v-25c0-0.563-0.193-1.036-0.578-1.422s-0.859-0.578-1.422-0.578zM30 30h-28v-25h8v1c0 0.271 0.099 0.505 0.297 0.703s0.432 0.297 0.703 0.297c0.271 0 0.505-0.099 0.703-0.297s0.297-0.432 0.297-0.703v-1h8v1c0 0.271 0.099 0.505 0.297 0.703s0.432 0.297 0.703 0.297c0.271 0 0.505-0.099 0.703-0.297s0.297-0.432 0.297-0.703v-1h8v25zM23 16h2c0.271 0 0.505-0.099 0.703-0.297s0.297-0.432 0.297-0.703v-2c0-0.271-0.099-0.505-0.297-0.703s-0.432-0.297-0.703-0.297h-2c-0.271 0-0.505 0.099-0.703 0.297s-0.297 0.432-0.297 0.703v2c0 0.271 0.099 0.505 0.297 0.703s0.432 0.297 0.703 0.297zM23 24h2c0.271 0 0.505-0.099 0.703-0.297s0.297-0.432 0.297-0.703v-2c0-0.271-0.099-0.505-0.297-0.703s-0.432-0.297-0.703-0.297h-2c-0.271 0-0.505 0.099-0.703 0.297s-0.297 0.432-0.297 0.703v2c0 0.271 0.099 0.505 0.297 0.703s0.432 0.297 0.703 0.297zM17 20h-2c-0.271 0-0.505 0.099-0.703 0.297s-0.297 0.432-0.297 0.703v2c0 0.271 0.099 0.505 0.297 0.703s0.432 0.297 0.703 0.297h2c0.271 0 0.505-0.099 0.703-0.297s0.297-0.432 0.297-0.703v-2c0-0.271-0.099-0.505-0.297-0.703s-0.432-0.297-0.703-0.297zM17 12h-2c-0.271 0-0.505 0.099-0.703 0.297s-0.297 0.432-0.297 0.703v2c0 0.271 0.099 0.505 0.297 0.703s0.432 0.297 0.703 0.297h2c0.271 0 0.505-0.099 0.703-0.297s0.297-0.432 0.297-0.703v-2c0-0.271-0.099-0.505-0.297-0.703s-0.432-0.297-0.703-0.297zM9 12h-2c-0.271 0-0.505 0.099-0.703 0.297s-0.297 0.432-0.297 0.703v2c0 0.271 0.099 0.505 0.297 0.703s0.432 0.297 0.703 0.297h2c0.271 0 0.505-0.099 0.703-0.297s0.297-0.432 0.297-0.703v-2c0-0.271-0.099-0.505-0.297-0.703s-0.432-0.297-0.703-0.297zM9 20h-2c-0.271 0-0.505 0.099-0.703 0.297s-0.297 0.432-0.297 0.703v2c0 0.271 0.099 0.505 0.297 0.703s0.432 0.297 0.703 0.297h2c0.271 0 0.505-0.099 0.703-0.297s0.297-0.432 0.297-0.703v-2c0-0.271-0.099-0.505-0.297-0.703s-0.432-0.297-0.703-0.297z"></path>
</svg>
